<?xml version="1.0" standalone="no"?>
<!DOCTYPE svg PUBLIC "-//W3C//DTD SVG 20010904//EN"
 "http://www.w3.org/TR/2001/REC-SVG-20010904/DTD/svg10.dtd">
<svg version="1.0" xmlns="http://www.w3.org/2000/svg"
 width="200.000000pt" height="200.000000pt" viewBox="0 0 200.000000 200.000000"
 preserveAspectRatio="xMidYMid meet">

<g transform="translate(0.000000,200.000000) scale(0.100000,-0.100000)"
fill="#000000" stroke="none">
<path d="M244 1153 c16 -4 18 -12 12 -64 -8 -66 9 -84 19 -21 12 74 15 81 38
85 12 2 -3 4 -33 4 -30 1 -47 -1 -36 -4z"/>
<path d="M622 1134 c-15 -35 -13 -106 3 -111 7 -2 9 12 7 35 -3 27 1 44 13 55
9 10 12 17 6 17 -5 0 -11 8 -13 18 -2 12 -7 9 -16 -14z"/>
<path d="M326 1083 c-6 -45 -2 -63 10 -50 4 3 9 26 11 52 7 60 -12 59 -21 -2z"/>
<path d="M365 1120 c-3 -5 1 -10 9 -10 9 0 16 5 16 10 0 6 -4 10 -9 10 -6 0
-13 -4 -16 -10z"/>
<path d="M405 1096 c-11 -57 -4 -71 35 -68 19 1 35 4 36 5 1 1 5 23 9 50 5 31
4 47 -3 47 -6 0 -14 -20 -17 -44 -7 -45 -31 -68 -41 -41 -4 8 -3 31 0 50 4 21
3 35 -3 35 -6 0 -13 -15 -16 -34z"/>
<path d="M533 1123 c-18 -7 -16 -38 2 -53 23 -19 19 -43 -6 -37 -16 4 -19 3
-11 -5 9 -9 18 -8 37 0 30 14 32 37 5 52 -27 14 -27 44 0 37 11 -3 18 -1 14 4
-6 10 -21 11 -41 2z"/>
<path d="M325 948 c-3 -24 -9 -58 -12 -75 -6 -40 13 -45 21 -5 14 74 18 122 8
122 -6 0 -13 -19 -17 -42z"/>
<path d="M586 933 c-4 -32 -10 -66 -13 -77 -3 -12 -1 -17 8 -14 7 2 16 15 20
29 l6 24 11 -27 c6 -16 16 -28 22 -28 12 0 12 2 0 36 -8 19 -7 31 2 43 10 13
9 13 -8 -1 -30 -26 -34 -23 -27 27 3 28 2 45 -4 45 -6 0 -14 -26 -17 -57z"/>
<path d="M205 923 c-4 -27 -9 -56 -12 -65 -3 -15 2 -18 31 -18 19 0 42 7 50
16 19 18 20 26 4 42 -8 8 -8 15 2 26 16 20 6 46 -17 46 -14 0 -15 -2 -5 -9 20
-13 10 -46 -15 -49 -20 -3 -21 -1 -13 27 7 24 5 31 -5 31 -9 0 -16 -17 -20
-47z m53 -45 c-5 -34 -38 -37 -38 -4 0 20 5 26 21 26 15 0 20 -5 17 -22z"/>
<path d="M374 915 c-13 -21 -15 -31 -6 -50 17 -37 27 -30 27 17 0 31 4 43 16
46 24 4 31 -26 15 -60 -19 -38 2 -33 24 5 31 55 -41 95 -76 42z"/>
<path d="M491 926 c-20 -23 -10 -80 14 -83 11 -2 14 0 8 3 -14 6 -17 52 -5 70
4 7 18 14 32 17 22 4 21 4 -6 6 -17 0 -37 -5 -43 -13z"/>
</g>
</svg>
